HIERARCHY
ROOT Hips
{
	OFFSET 0.000000 0.000000 0.000000
	CHANNELS 6 Xposition Yposition Zposition Zrotation Yrotation Xrotation 
	JOINT LHipJoint
	{
		OFFSET 0.000000 0.000000 0.000000
		CHANNELS 3 Zrotation Yrotation Xrotation
		JOINT LeftUpLeg
		{
			OFFSET 1.363060 -1.794630 0.839290
			CHANNELS 3 Zrotation Yrotation Xrotation
			JOINT LeftLeg
			{
				OFFSET 2.448110 -6.726130 0.000000
				CHANNELS 3 Zrotation Yrotation Xrotation
				JOINT LeftFoot
				{
					OFFSET 2.562200 -7.039590 0.000000
					CHANNELS 3 Zrotation Yrotation Xrotation
					JOINT LeftToeBase
					{
						OFFSET 0.157640 -0.433110 2.322550
						CHANNELS 3 Zrotation Yrotation Xrotation
						End Site
						{
							OFFSET 0.000000 0.000000 0.000000
						}
					}
				}
			}
		}
	}
	JOINT RHipJoint
	{
		OFFSET 0.000000 0.000000 0.000000
		CHANNELS 3 Zrotation Yrotation Xrotation
		JOINT RightUpLeg
		{
			OFFSET -1.305520 -1.794630 0.839290
			CHANNELS 3 Zrotation Yrotation Xrotation
			JOINT RightLeg
			{
				OFFSET -2.542530 -6.985550 0.000000
				CHANNELS 3 Zrotation Yrotation Xrotation
				JOINT RightFoot
				{
					OFFSET -2.568260 -7.056230 0.000000
					CHANNELS 3 Zrotation Yrotation Xrotation
					JOINT RightToeBase
					{
						OFFSET -0.164730 -0.452590 2.363150
						CHANNELS 3 Zrotation Yrotation Xrotation
						End Site
						{
							OFFSET 0.000000 0.000000 0.000000
						}
					}
				}
			}
		}
	}
	JOINT LowerBack
	{
		OFFSET 0.000000 0.000000 0.000000
		CHANNELS 3 Zrotation Yrotation Xrotation
		JOINT Spine
		{
			OFFSET 0.028270 2.035590 -0.193380
			CHANNELS 3 Zrotation Yrotation Xrotation
			JOINT Spine1
			{
				OFFSET 0.056720 2.048850 -0.042750
				CHANNELS 3 Zrotation Yrotation Xrotation
				JOINT Neck
				{
					OFFSET 0.000000 0.000000 0.000000
					CHANNELS 3 Zrotation Yrotation Xrotation
					JOINT Neck1
					{
						OFFSET -0.054170 1.746240 0.172020
						CHANNELS 3 Zrotation Yrotation Xrotation
						JOINT Head
						{
							OFFSET 0.104070 1.761360 -0.123970
							CHANNELS 3 Zrotation Yrotation Xrotation
							End Site
							{
								OFFSET 0.000000 0.000000 0.000000
							}
						}
					}
				}
				JOINT LeftShoulder
				{
					OFFSET 0.000000 0.000000 0.000000
					CHANNELS 3 Zrotation Yrotation Xrotation
					JOINT LeftArm
					{
						OFFSET 3.362410 1.200890 -0.311210
						CHANNELS 3 Zrotation Yrotation Xrotation
						JOINT LeftForeArm
						{
							OFFSET 4.983000 -0.000000 -0.000000
							CHANNELS 3 Zrotation Yrotation Xrotation
							JOINT LeftHand
							{
								OFFSET 3.483560 -0.000000 -0.000000
								CHANNELS 3 Zrotation Yrotation Xrotation
								JOINT LeftFingerBase
								{
									OFFSET 0.000000 0.000000 0.000000
									CHANNELS 3 Zrotation Yrotation Xrotation
									JOINT LeftHandIndex1
									{
										OFFSET 0.715260 -0.000000 -0.000000
										CHANNELS 3 Zrotation Yrotation Xrotation
										End Site
										{
											OFFSET 0.000000 0.000000 0.000000
										}
									}
								}
								JOINT LThumb
								{
									OFFSET 0.000000 0.000000 0.000000
									CHANNELS 3 Zrotation Yrotation Xrotation
									End Site
									{
										OFFSET 0.000000 0.000000 0.000000
									}
								}
							}
						}
					}
				}
				JOINT RightShoulder
				{
					OFFSET 0.000000 0.000000 0.000000
					CHANNELS 3 Zrotation Yrotation Xrotation
					JOINT RightArm
					{
						OFFSET -3.136600 1.374050 -0.404650
						CHANNELS 3 Zrotation Yrotation Xrotation
						JOINT RightForeArm
						{
							OFFSET -5.241900 -0.000000 -0.000000
							CHANNELS 3 Zrotation Yrotation Xrotation
							JOINT RightHand
							{
								OFFSET -3.444170 -0.000000 -0.000000
								CHANNELS 3 Zrotation Yrotation Xrotation
								JOINT RightFingerBase
								{
									OFFSET 0.000000 0.000000 0.000000
									CHANNELS 3 Zrotation Yrotation Xrotation
									JOINT RightHandIndex1
									{
										OFFSET -0.622530 -0.000000 -0.000000
										CHANNELS 3 Zrotation Yrotation Xrotation
										End Site
										{
											OFFSET 0.000000 0.000000 0.000000
										}
									}
								}
								JOINT RThumb
								{
									OFFSET 0.000000 0.000000 0.000000
									CHANNELS 3 Zrotation Yrotation Xrotation
									End Site
									{
										OFFSET 0.000000 0.000000 0.000000
									}
								}
							}
						}
					}
				}
			}
		}
	}
}
MOTION
Frames: 7
Frame Time: 0.008333
4.709095 16.180951 1.821419 -4.155829 -7.091657 23.248217 4.498553 1.368300 0.500646 -23.175673 -13.090470 -54.566559 8.172455 18.377938 55.633528 1.267140 -1.534273 -12.556552 0.394400 4.032500 11.168100 -5.327107 -2.375514 1.555734 8.999654 21.711727 -73.427211 -2.337324 -12.724539 30.891344 -5.614368 -17.017996 47.488915 -0.030400 -1.125400 3.094000 1.906259 0.208377 12.531810 0.462809 0.153724 13.519119 -0.618839 0.872325 -6.005789 -1.789906 -0.776784 -28.527354 -1.314642 0.194797 32.551961 -0.717400 -0.442700 17.423800 -0.543937 -8.352092 1.738755 -35.580690 2.526887 87.400916 49.378919 -46.899947 -26.078653 1.206331 0.205417 -64.589266 32.024211 -21.493152 -12.016600 -7.125000 0.000000 0.000000 1.773900 6.382100 -1.566500 1.514211 9.419752 4.336084 35.198753 -19.130586 71.233757 -63.645791 49.626992 -33.528201 0.516749 -1.365763 -21.354405 -11.873114 -44.154499 8.106600 7.125000 0.000000 0.000000 37.599400 -69.918300 -23.505500 
4.709605 16.188917 1.821930 -4.186409 -6.976107 23.345170 4.497148 1.363625 0.499275 -23.096065 -13.231168 -54.559288 8.151321 18.366527 55.568902 1.248781 -1.447658 -12.559363 0.401000 4.065400 11.260600 -5.325569 -2.371666 1.552197 9.151835 21.508086 -73.478412 -2.325614 -12.717874 30.845129 -5.614623 -17.089830 47.501224 -0.042100 -1.324000 3.640700 2.015597 0.182807 12.502527 0.437082 0.131912 13.475352 -0.674174 0.857044 -6.017604 -1.916866 -0.827152 -28.511981 -1.081016 0.108818 32.512089 -0.600500 -0.461400 17.398500 -0.531559 -8.344672 1.736965 -35.382238 2.903634 87.615149 49.079095 -46.779310 -25.813657 1.208552 0.203424 -64.152592 31.809190 -21.519544 -11.932700 -7.125000 0.000000 0.000000 1.629600 6.393400 -1.438600 1.511906 9.412944 4.327231 35.126958 -19.407140 71.300043 -63.396382 49.570056 -33.295316 0.523120 -1.366005 -21.128156 -11.619810 -44.077503 7.927200 7.125000 0.000000 0.000000 37.698700 -69.778900 -23.461400 
4.711341 16.195351 1.821011 -4.393530 -6.770369 23.498946 4.509327 1.357086 0.491442 -22.789166 -13.414581 -54.666220 8.145605 18.371850 55.551288 1.223264 -1.341942 -12.527623 0.399200 4.056800 11.236600 -5.320618 -2.366063 1.551410 9.453836 21.342290 -73.543788 -2.290936 -12.697641 30.808507 -5.712970 -16.689164 47.685736 -0.032100 -1.156900 3.180700 2.314861 0.131774 12.544903 0.531554 0.094265 13.338881 -0.811229 0.834200 -6.118889 -2.118646 -0.885892 -28.540674 -0.802645 0.038096 32.618207 -0.453500 -0.477200 17.460400 -0.526811 -8.334487 1.737742 -35.069411 3.209340 87.922561 48.999952 -46.756850 -25.698434 1.158764 0.167886 -63.994208 29.738794 -19.356340 -9.938800 -7.125000 0.000000 0.000000 0.627800 9.182400 -0.519600 1.507496 9.405613 4.321497 35.002167 -19.771075 71.374344 -63.458143 49.592975 -33.342496 0.528777 -1.372801 -21.058221 -11.540656 -44.367610 7.917300 7.125000 0.000000 0.000000 38.313200 -69.962900 -24.031600 
4.709707 16.191470 1.819070 -4.531508 -6.553376 23.644633 4.522785 1.352220 0.488168 -22.500439 -13.670635 -54.811883 8.153560 18.387121 55.574570 1.220102 -1.331164 -12.521833 0.425600 4.187000 11.603200 -5.316889 -2.364381 1.548776 9.549902 21.256729 -73.640572 -2.271599 -12.686037 30.780347 -5.753102 -16.494743 47.749560 -0.023200 -0.982600 2.700900 2.543882 0.119429 12.589272 0.611522 0.100225 13.224229 -0.922007 0.834606 -6.211257 -2.222008 -0.948808 -28.500268 -0.663830 -0.048230 32.702596 -0.387200 -0.503900 17.493000 -0.534398 -8.324281 1.735444 -34.975197 3.565545 88.201194 48.710504 -46.641342 -25.456579 1.166064 0.174764 -63.738953 29.946444 -19.733035 -10.212400 -7.125000 0.000000 0.000000 0.706200 8.724200 -0.590900 1.502170 9.398448 4.315662 34.816606 -20.144828 71.540812 -63.456218 49.601943 -33.327132 0.540677 -1.371643 -21.396829 -11.498274 -44.370890 7.889800 7.125000 0.000000 0.000000 38.353500 -69.949700 -24.048500 
4.704907 16.185751 1.817640 -4.584329 -6.426617 23.736834 4.529510 1.350792 0.490230 -22.339877 -13.827670 -54.922476 8.161661 18.399002 55.597417 1.234208 -1.388535 -12.545168 0.457500 4.339100 12.032800 -5.315504 -2.366078 1.548614 9.522459 21.242780 -73.721696 -2.277044 -12.691148 30.771385 -5.722210 -16.668704 47.698598 -0.025700 -1.034300 2.843200 2.638758 0.146245 12.532958 0.631234 0.141760 13.228251 -0.971315 0.855185 -6.183254 -2.235316 -0.983221 -28.395456 -0.621323 -0.110451 32.678008 -0.373600 -0.522700 17.456600 -0.531282 -8.320151 1.733516 -34.851819 3.837172 88.456980 48.362596 -46.494850 -25.177117 1.190349 0.198588 -63.310072 30.981607 -20.805194 -11.194800 -7.125000 0.000000 0.000000 1.202000 7.332700 -1.039000 1.491963 9.396105 4.304542 34.691908 -20.473903 71.631508 -63.334392 49.574752 -33.202545 0.544627 -1.372446 -21.725797 -11.736725 -44.161610 8.020300 7.125000 0.000000 0.000000 37.703700 -69.869200 -23.537500 
4.703886 16.191164 1.817538 -4.610938 -6.349267 23.764172 4.529726 1.352090 0.496554 -22.281417 -13.904279 -54.906226 8.152844 18.392714 55.567382 1.236799 -1.394576 -12.558884 0.454500 4.324700 11.992000 -5.313012 -2.367606 1.555774 9.542357 21.191860 -73.726932 -2.294369 -12.710431 30.804141 -5.670265 -16.877371 47.596045 -0.033300 -1.178400 3.239700 2.700679 0.151398 12.376567 0.627840 0.148584 13.382414 -0.997597 0.861115 -6.013087 -2.156181 -0.981801 -28.470488 -0.736210 -0.108153 32.679190 -0.441900 -0.525400 17.488000 -0.502248 -8.324906 1.742635 -34.439567 3.865145 88.755997 48.306009 -46.476254 -25.129293 1.205548 0.218639 -63.382638 31.566642 -21.567686 -11.852500 -7.125000 0.000000 0.000000 1.449400 6.362700 -1.280200 1.476977 9.402344 4.288796 34.659960 -20.711179 71.476360 -63.269156 49.555632 -33.134045 0.545549 -1.383972 -21.653153 -12.002641 -44.486121 8.251600 7.125000 0.000000 0.000000 38.029000 -70.188200 -24.017900 
4.700924 16.195045 1.819479 -4.480302 -6.361406 23.774354 4.525170 1.353226 0.504308 -22.386769 -13.995701 -54.872576 8.134848 18.379223 55.512297 1.239168 -1.413773 -12.538531 0.456400 4.333700 12.017400 -5.314315 -2.370579 1.560254 9.324389 21.193049 -73.763882 -2.299159 -12.717640 30.841581 -5.657095 -16.730195 47.512050 -0.027000 -1.060900 2.916500 2.526936 0.159455 12.249609 0.576116 0.137920 13.521249 -0.905432 0.862372 -5.872845 -2.099508 -1.001235 -28.692966 -0.827010 -0.128547 32.826898 -0.501700 -0.538400 17.640400 -0.477620 -8.321863 1.735151 -34.331765 4.146314 88.814672 48.100033 -46.380822 -24.940279 1.203760 0.213096 -63.305457 31.108256 -21.540687 -11.632500 -7.125000 0.000000 0.000000 1.167200 6.487200 -1.028100 1.468363 9.409071 4.281269 34.565704 -20.872422 71.383340 -63.077885 49.513137 -32.956822 0.533744 -1.402719 -21.407585 -12.577808 -44.593220 8.660300 7.125000 0.000000 0.000000 37.620200 -70.444600 -23.940100 
